<svg width="943" height="60" viewBox="0 0 943 60" fill="none" xmlns="http://www.w3.org/2000/svg">
<path d="M25.632 2.2H34.4V47H25.632V28.44H8.992V47H0.16V2.2H8.992V19.992H25.632V2.2ZM46.4345 11.16C45.0692 11.16 43.8745 10.6693 42.8505 9.688C41.8692 8.664 41.3785 7.46933 41.3785 6.104C41.3785 4.73867 41.8692 3.544 42.8505 2.52C43.8745 1.496 45.0692 0.983997 46.4345 0.983997C47.8425 0.983997 49.0372 1.496 50.0185 2.52C51.0425 3.544 51.5545 4.73867 51.5545 6.104C51.5545 7.46933 51.0425 8.664 50.0185 9.688C49.0372 10.6693 47.8425 11.16 46.4345 11.16ZM42.3385 47V15H50.5945V47H42.3385ZM66.407 20.504C67.175 18.456 68.4337 16.92 70.183 15.896C71.975 14.872 73.959 14.36 76.135 14.36V23.576C73.6177 23.2773 71.3563 23.7893 69.351 25.112C67.3883 26.4347 66.407 28.632 66.407 31.704V47H58.151V15H66.407V20.504ZM86.752 34.392C87.8613 38.4027 90.8693 40.408 95.776 40.408C98.9333 40.408 101.323 39.3413 102.944 37.208L109.6 41.048C106.443 45.6133 101.792 47.896 95.648 47.896C90.3573 47.896 86.112 46.296 82.912 43.096C79.712 39.896 78.112 35.864 78.112 31C78.112 26.1787 79.6907 22.168 82.848 18.968C86.0053 15.7253 90.0587 14.104 95.008 14.104C99.7013 14.104 103.563 15.7253 106.592 18.968C109.664 22.2107 111.2 26.2213 111.2 31C111.2 32.0667 111.093 33.1973 110.88 34.392H86.752ZM86.624 27.992H102.944C102.475 25.816 101.493 24.1947 100 23.128C98.5493 22.0613 96.8853 21.528 95.008 21.528C92.7893 21.528 90.9547 22.104 89.504 23.256C88.0533 24.3653 87.0933 25.944 86.624 27.992ZM432.555 9.24C428.032 8.89866 425.771 10.712 425.771 14.68V15H432.555V22.936H425.771V47H417.515V22.936H412.907V15H417.515V14.68C417.515 10.1573 418.773 6.72267 421.291 4.376C423.808 2.02933 427.563 1.00533 432.555 1.304V9.24ZM462.415 43.032C459.13 46.2747 455.119 47.896 450.383 47.896C445.647 47.896 441.636 46.2747 438.351 43.032C435.108 39.7467 433.487 35.736 433.487 31C433.487 26.264 435.108 22.2747 438.351 19.032C441.636 15.7467 445.647 14.104 450.383 14.104C455.119 14.104 459.13 15.7467 462.415 19.032C465.7 22.2747 467.343 26.264 467.343 31C467.343 35.736 465.7 39.7467 462.415 43.032ZM444.175 37.336C445.839 39 447.908 39.832 450.383 39.832C452.858 39.832 454.927 39 456.591 37.336C458.255 35.672 459.087 33.56 459.087 31C459.087 28.44 458.255 26.328 456.591 24.664C454.927 23 452.858 22.168 450.383 22.168C447.908 22.168 445.839 23 444.175 24.664C442.554 26.328 441.743 28.44 441.743 31C441.743 33.56 442.554 35.672 444.175 37.336ZM481.407 20.504C482.175 18.456 483.434 16.92 485.183 15.896C486.975 14.872 488.959 14.36 491.135 14.36V23.576C488.618 23.2773 486.356 23.7893 484.351 25.112C482.388 26.4347 481.407 28.632 481.407 31.704V47H473.151V15H481.407V20.504ZM532.828 15H541.66L530.012 47C528.348 51.608 526.129 54.936 523.356 56.984C520.625 59.0747 517.212 60.0133 513.116 59.8V52.12C515.334 52.1627 517.084 51.6933 518.364 50.712C519.686 49.7307 520.732 48.152 521.5 45.976L508.38 15H517.404L525.724 36.504L532.828 15ZM571.603 43.032C568.317 46.2747 564.307 47.896 559.571 47.896C554.835 47.896 550.824 46.2747 547.539 43.032C544.296 39.7467 542.674 35.736 542.674 31C542.674 26.264 544.296 22.2747 547.539 19.032C550.824 15.7467 554.835 14.104 559.571 14.104C564.307 14.104 568.317 15.7467 571.603 19.032C574.888 22.2747 576.531 26.264 576.531 31C576.531 35.736 574.888 39.7467 571.603 43.032ZM553.363 37.336C555.027 39 557.096 39.832 559.571 39.832C562.045 39.832 564.115 39 565.779 37.336C567.443 35.672 568.275 33.56 568.275 31C568.275 28.44 567.443 26.328 565.779 24.664C564.115 23 562.045 22.168 559.571 22.168C557.096 22.168 555.027 23 553.363 24.664C551.741 26.328 550.931 28.44 550.931 31C550.931 33.56 551.741 35.672 553.363 37.336ZM603.459 15H611.715V47H603.459V43.416C601.453 46.4027 598.275 47.896 593.923 47.896C590.424 47.896 587.523 46.7227 585.219 44.376C582.957 42.0293 581.827 38.7867 581.827 34.648V15H590.083V33.624C590.083 35.7573 590.659 37.4 591.811 38.552C592.963 39.6613 594.499 40.216 596.419 40.216C598.552 40.216 600.259 39.5547 601.539 38.232C602.819 36.9093 603.459 34.9253 603.459 32.28V15ZM627.532 20.504C628.3 18.456 629.559 16.92 631.308 15.896C633.1 14.872 635.084 14.36 637.26 14.36V23.576C634.743 23.2773 632.481 23.7893 630.476 25.112C628.513 26.4347 627.532 28.632 627.532 31.704V47H619.276V15H627.532V20.504ZM679.721 47.896C672.979 47.896 667.411 45.656 663.017 41.176C658.622 36.696 656.424 31.1707 656.424 24.6C656.424 17.9867 658.622 12.4613 663.017 8.024C667.411 3.544 672.979 1.304 679.721 1.304C683.774 1.304 687.507 2.264 690.921 4.184C694.377 6.06133 697.065 8.62133 698.985 11.864L691.369 16.28C690.259 14.2747 688.681 12.7173 686.632 11.608C684.585 10.456 682.281 9.88 679.721 9.88C675.369 9.88 671.849 11.2453 669.161 13.976C666.515 16.7067 665.193 20.248 665.193 24.6C665.193 28.9093 666.515 32.4293 669.161 35.16C671.849 37.8907 675.369 39.256 679.721 39.256C682.281 39.256 684.585 38.7013 686.632 37.592C688.723 36.44 690.302 34.8827 691.369 32.92L698.985 37.336C697.065 40.5787 694.398 43.16 690.985 45.08C687.571 46.9573 683.817 47.896 679.721 47.896ZM731.478 43.032C728.192 46.2747 724.182 47.896 719.446 47.896C714.71 47.896 710.699 46.2747 707.414 43.032C704.171 39.7467 702.549 35.736 702.549 31C702.549 26.264 704.171 22.2747 707.414 19.032C710.699 15.7467 714.71 14.104 719.446 14.104C724.182 14.104 728.192 15.7467 731.478 19.032C734.763 22.2747 736.406 26.264 736.406 31C736.406 35.736 734.763 39.7467 731.478 43.032ZM713.238 37.336C714.902 39 716.971 39.832 719.446 39.832C721.92 39.832 723.99 39 725.654 37.336C727.318 35.672 728.15 33.56 728.15 31C728.15 28.44 727.318 26.328 725.654 24.664C723.99 23 721.92 22.168 719.446 22.168C716.971 22.168 714.902 23 713.238 24.664C711.616 26.328 710.806 28.44 710.806 31C710.806 33.56 711.616 35.672 713.238 37.336ZM777.606 14.104C781.275 14.104 784.198 15.2987 786.374 17.688C788.592 20.0773 789.702 23.2773 789.702 27.288V47H781.446V27.864C781.446 25.944 780.976 24.4507 780.038 23.384C779.099 22.3173 777.776 21.784 776.069 21.784C774.192 21.784 772.72 22.4027 771.654 23.64C770.63 24.8773 770.118 26.6693 770.118 29.016V47H761.862V27.864C761.862 25.944 761.392 24.4507 760.454 23.384C759.515 22.3173 758.192 21.784 756.486 21.784C754.651 21.784 753.179 22.4027 752.07 23.64C751.003 24.8773 750.47 26.6693 750.47 29.016V47H742.214V15H750.47V18.392C752.39 15.5333 755.355 14.104 759.366 14.104C763.291 14.104 766.192 15.64 768.07 18.712C770.203 15.64 773.382 14.104 777.606 14.104ZM815.338 14.104C819.647 14.104 823.316 15.7467 826.346 19.032C829.418 22.2747 830.954 26.264 830.954 31C830.954 35.736 829.418 39.7467 826.346 43.032C823.316 46.2747 819.647 47.896 815.338 47.896C810.858 47.896 807.402 46.3387 804.97 43.224V59.8H796.714V15H804.97V18.776C807.402 15.6613 810.858 14.104 815.338 14.104ZM807.466 37.528C809.13 39.192 811.242 40.024 813.802 40.024C816.362 40.024 818.474 39.192 820.138 37.528C821.844 35.8213 822.698 33.6453 822.698 31C822.698 28.3547 821.844 26.2 820.138 24.536C818.474 22.8293 816.362 21.976 813.802 21.976C811.242 21.976 809.13 22.8293 807.466 24.536C805.802 26.2 804.97 28.3547 804.97 31C804.97 33.6453 805.802 35.8213 807.466 37.528ZM861.096 15H869.352V47H861.096V43.224C858.621 46.3387 855.144 47.896 850.664 47.896C846.397 47.896 842.728 46.2747 839.656 43.032C836.627 39.7467 835.112 35.736 835.112 31C835.112 26.264 836.627 22.2747 839.656 19.032C842.728 15.7467 846.397 14.104 850.664 14.104C855.144 14.104 858.621 15.6613 861.096 18.776V15ZM845.864 37.528C847.528 39.192 849.64 40.024 852.2 40.024C854.76 40.024 856.872 39.192 858.536 37.528C860.243 35.8213 861.096 33.6453 861.096 31C861.096 28.3547 860.243 26.2 858.536 24.536C856.872 22.8293 854.76 21.976 852.2 21.976C849.64 21.976 847.528 22.8293 845.864 24.536C844.2 26.2 843.368 28.3547 843.368 31C843.368 33.6453 844.2 35.8213 845.864 37.528ZM894.631 14.104C898.129 14.104 901.009 15.2773 903.271 17.624C905.575 19.9707 906.727 23.2133 906.727 27.352V47H898.471V28.376C898.471 26.2427 897.895 24.6213 896.743 23.512C895.591 22.36 894.055 21.784 892.135 21.784C890.001 21.784 888.295 22.4453 887.015 23.768C885.735 25.0907 885.095 27.0747 885.095 29.72V47H876.839V15H885.095V18.584C887.1 15.5973 890.279 14.104 894.631 14.104ZM933.953 15H942.785L931.137 47C929.473 51.608 927.254 54.936 924.481 56.984C921.75 59.0747 918.337 60.0133 914.241 59.8V52.12C916.459 52.1627 918.209 51.6933 919.489 50.712C920.811 49.7307 921.857 48.152 922.625 45.976L909.505 15H918.529L926.849 36.504L933.953 15Z" fill="white"/>
<path d="M148.644 47.96C143.908 47.96 139.982 46.9573 136.868 44.952C133.753 42.9467 131.577 40.2373 130.34 36.824L140.132 31.128C141.796 35.096 144.74 37.08 148.964 37.08C152.462 37.08 154.212 36.0773 154.212 34.072C154.212 32.7493 153.209 31.6827 151.204 30.872C150.35 30.5307 148.473 29.9547 145.572 29.144C141.476 27.9493 138.233 26.2853 135.844 24.152C133.454 21.976 132.26 18.968 132.26 15.128C132.26 10.9893 133.732 7.64 136.676 5.08C139.662 2.52 143.374 1.24 147.812 1.24C151.566 1.24 154.894 2.11466 157.796 3.864C160.697 5.61333 162.916 8.152 164.451 11.48L154.852 17.112C153.444 13.784 151.118 12.12 147.876 12.12C146.51 12.12 145.465 12.3973 144.74 12.952C144.057 13.5067 143.716 14.2107 143.716 15.064C143.716 16.0453 144.228 16.8773 145.252 17.56C146.318 18.2427 148.366 19.032 151.396 19.928C153.572 20.568 155.321 21.1653 156.644 21.72C157.966 22.2747 159.417 23.0853 160.996 24.152C162.574 25.176 163.748 26.52 164.516 28.184C165.284 29.8053 165.668 31.7253 165.668 33.944C165.668 38.3387 164.11 41.7733 160.996 44.248C157.881 46.7227 153.764 47.96 148.644 47.96ZM188.6 25.176H181.944V34.456C181.944 35.864 182.456 36.7387 183.48 37.08C184.504 37.4213 186.21 37.528 188.6 37.4V47C182.242 47.768 177.762 47.192 175.16 45.272C172.6 43.3093 171.32 39.7893 171.32 34.712V25.176H166.52V15H171.32V9.24L181.944 6.04V15H188.6V25.176ZM214.235 15H224.859V47H214.235V43.8C212.315 46.5307 209.35 47.896 205.339 47.896C201.883 47.896 199.046 46.7227 196.827 44.376C194.651 41.9867 193.563 38.5733 193.563 34.136V15H204.187V32.792C204.187 34.456 204.614 35.7147 205.467 36.568C206.363 37.4213 207.536 37.848 208.987 37.848C210.651 37.848 211.931 37.3573 212.827 36.376C213.766 35.352 214.235 33.9013 214.235 32.024V15ZM253.539 2.2H264.163V47H253.539V44.056C251.363 46.616 248.334 47.896 244.451 47.896C240.184 47.896 236.6 46.296 233.699 43.096C230.84 39.8533 229.411 35.8213 229.411 31C229.411 26.1787 230.84 22.168 233.699 18.968C236.6 15.7253 240.184 14.104 244.451 14.104C248.334 14.104 251.363 15.384 253.539 17.944V2.2ZM241.955 36.056C243.192 37.336 244.814 37.976 246.819 37.976C248.824 37.976 250.446 37.336 251.683 36.056C252.92 34.776 253.539 33.0907 253.539 31C253.539 28.9093 252.92 27.224 251.683 25.944C250.446 24.664 248.824 24.024 246.819 24.024C244.814 24.024 243.192 24.664 241.955 25.944C240.718 27.224 240.099 28.9093 240.099 31C240.099 33.0907 240.718 34.776 241.955 36.056ZM279.732 34.904C280.798 37.5067 283.188 38.808 286.9 38.808C289.204 38.808 291.145 38.0613 292.724 36.568L300.404 41.944C297.246 45.912 292.66 47.896 286.644 47.896C281.225 47.896 276.873 46.3173 273.588 43.16C270.345 39.96 268.724 35.928 268.724 31.064C268.724 26.2427 270.324 22.2107 273.524 18.968C276.724 15.7253 280.798 14.104 285.748 14.104C290.526 14.104 294.473 15.704 297.588 18.904C300.702 22.104 302.26 26.1147 302.26 30.936C302.26 32.344 302.11 33.6667 301.812 34.904H279.732ZM279.604 27.544H291.892C291.038 24.5573 289.033 23.064 285.876 23.064C282.59 23.064 280.5 24.5573 279.604 27.544ZM326.342 14.104C329.798 14.104 332.614 15.2987 334.79 17.688C337.009 20.0347 338.118 23.4267 338.118 27.864V47H327.494V29.208C327.494 27.544 327.046 26.2853 326.15 25.432C325.297 24.5787 324.145 24.152 322.694 24.152C321.03 24.152 319.729 24.664 318.79 25.688C317.894 26.6693 317.446 28.0987 317.446 29.976V47H306.822V15H317.446V18.2C319.366 15.4693 322.331 14.104 326.342 14.104ZM363.725 25.176H357.069V34.456C357.069 35.864 357.581 36.7387 358.605 37.08C359.629 37.4213 361.335 37.528 363.725 37.4V47C357.367 47.768 352.887 47.192 350.285 45.272C347.725 43.3093 346.445 39.7893 346.445 34.712V25.176H341.645V15H346.445V9.24L357.069 6.04V15H363.725V25.176ZM378.436 24.344C378.436 24.9413 378.969 25.432 380.036 25.816C381.145 26.2 382.468 26.5627 384.003 26.904C385.582 27.2453 387.14 27.736 388.676 28.376C390.254 28.9733 391.577 30.0187 392.644 31.512C393.753 33.0053 394.308 34.8827 394.308 37.144C394.308 40.8133 392.942 43.5227 390.212 45.272C387.481 47.0213 384.238 47.896 380.484 47.896C373.316 47.896 368.537 45.3573 366.148 40.28L375.428 35.608C376.238 37.9547 377.902 39.128 380.42 39.128C382.34 39.128 383.3 38.552 383.3 37.4C383.3 36.8027 382.766 36.312 381.7 35.928C380.633 35.544 379.332 35.16 377.796 34.776C376.26 34.392 374.724 33.88 373.188 33.24C371.652 32.6 370.35 31.576 369.284 30.168C368.217 28.7173 367.684 26.9467 367.684 24.856C367.684 21.4427 368.942 18.7973 371.46 16.92C373.977 15.0427 377.006 14.104 380.548 14.104C386.862 14.104 391.257 16.5787 393.732 21.528L384.772 25.56C383.833 23.7253 382.51 22.808 380.804 22.808C379.225 22.808 378.436 23.32 378.436 24.344Z" fill="#FF647C"/>
</svg>
