<svg width="175" height="50" viewBox="0 0 175 50" fill="none" xmlns="http://www.w3.org/2000/svg">
<path d="M12.552 0.199999V2.312H7.584V17H5.376V2.312H0.432V0.199999H12.552ZM16.1923 7.016C16.8803 5.528 18.1283 4.784 19.9363 4.784V6.968C18.9123 6.92 18.0323 7.192 17.2963 7.784C16.5603 8.376 16.1923 9.328 16.1923 10.64V17H14.1043V5H16.1923V7.016ZM31.4593 5H33.5473V17H31.4593V15.272C30.6113 16.632 29.3153 17.312 27.5713 17.312C26.1633 17.312 25.0353 16.872 24.1873 15.992C23.3393 15.096 22.9153 13.888 22.9153 12.368V5H25.0033V12.248C25.0033 13.224 25.2673 13.984 25.7953 14.528C26.3233 15.056 27.0513 15.32 27.9793 15.32C29.0193 15.32 29.8593 15 30.4993 14.36C31.1393 13.704 31.4593 12.704 31.4593 11.36V5ZM39.7027 8.24C39.7027 8.704 39.9347 9.08 40.3987 9.368C40.8627 9.64 41.4227 9.864 42.0787 10.04C42.7347 10.2 43.3907 10.392 44.0467 10.616C44.7027 10.824 45.2627 11.192 45.7267 11.72C46.1907 12.232 46.4227 12.896 46.4227 13.712C46.4227 14.8 45.9987 15.672 45.1507 16.328C44.3187 16.984 43.2467 17.312 41.9347 17.312C40.7667 17.312 39.7667 17.056 38.9347 16.544C38.1027 16.032 37.5107 15.352 37.1587 14.504L38.9587 13.472C39.1507 14.048 39.5107 14.504 40.0387 14.84C40.5667 15.176 41.1987 15.344 41.9347 15.344C42.6227 15.344 43.1907 15.216 43.6387 14.96C44.0867 14.688 44.3107 14.272 44.3107 13.712C44.3107 13.248 44.0787 12.88 43.6147 12.608C43.1507 12.32 42.5907 12.096 41.9347 11.936C41.2787 11.76 40.6227 11.56 39.9667 11.336C39.3107 11.112 38.7507 10.744 38.2867 10.232C37.8227 9.72 37.5907 9.064 37.5907 8.264C37.5907 7.224 37.9907 6.368 38.7907 5.696C39.6067 5.024 40.6227 4.688 41.8387 4.688C42.8147 4.688 43.6787 4.912 44.4307 5.36C45.1987 5.792 45.7747 6.4 46.1587 7.184L44.4067 8.168C43.9747 7.144 43.1187 6.632 41.8387 6.632C41.2467 6.632 40.7427 6.776 40.3267 7.064C39.9107 7.336 39.7027 7.728 39.7027 8.24ZM56.1542 7.016H52.9622V13.52C52.9622 14.112 53.0742 14.536 53.2982 14.792C53.5382 15.032 53.8982 15.16 54.3782 15.176C54.8582 15.176 55.4502 15.16 56.1542 15.128V17C54.3302 17.24 52.9942 17.096 52.1462 16.568C51.2982 16.024 50.8742 15.008 50.8742 13.52V7.016H48.4982V5H50.8742V2.264L52.9622 1.64V5H56.1542V7.016ZM60.6808 11.96C60.8888 13.032 61.3768 13.864 62.1448 14.456C62.9288 15.048 63.8888 15.344 65.0248 15.344C66.6088 15.344 67.7608 14.76 68.4808 13.592L70.2568 14.6C69.0888 16.408 67.3288 17.312 64.9768 17.312C63.0728 17.312 61.5208 16.72 60.3208 15.536C59.1368 14.336 58.5448 12.824 58.5448 11C58.5448 9.192 59.1288 7.688 60.2968 6.488C61.4648 5.288 62.9768 4.688 64.8328 4.688C66.5928 4.688 68.0248 5.312 69.1288 6.56C70.2488 7.792 70.8088 9.28 70.8088 11.024C70.8088 11.328 70.7848 11.64 70.7368 11.96H60.6808ZM64.8328 6.656C63.7128 6.656 62.7848 6.976 62.0488 7.616C61.3128 8.24 60.8568 9.08 60.6808 10.136H68.6968C68.5208 9 68.0728 8.136 67.3528 7.544C66.6328 6.952 65.7928 6.656 64.8328 6.656ZM84.3216 0.199999H86.4096V17H84.3216V14.936C83.2816 16.52 81.7696 17.312 79.7856 17.312C78.1056 17.312 76.6736 16.704 75.4896 15.488C74.3056 14.256 73.7136 12.76 73.7136 11C73.7136 9.24 74.3056 7.752 75.4896 6.536C76.6736 5.304 78.1056 4.688 79.7856 4.688C81.7696 4.688 83.2816 5.48 84.3216 7.064V0.199999ZM80.0496 15.296C81.2656 15.296 82.2816 14.888 83.0976 14.072C83.9136 13.24 84.3216 12.216 84.3216 11C84.3216 9.784 83.9136 8.768 83.0976 7.952C82.2816 7.12 81.2656 6.704 80.0496 6.704C78.8496 6.704 77.8416 7.12 77.0256 7.952C76.2096 8.768 75.8016 9.784 75.8016 11C75.8016 12.216 76.2096 13.24 77.0256 14.072C77.8416 14.888 78.8496 15.296 80.0496 15.296ZM107.789 8.288C108.557 8.656 109.165 9.184 109.613 9.872C110.077 10.56 110.309 11.352 110.309 12.248C110.309 13.592 109.837 14.72 108.893 15.632C107.949 16.544 106.797 17 105.437 17H98.1891V0.199999H104.909C106.221 0.199999 107.333 0.639999 108.245 1.52C109.157 2.4 109.613 3.488 109.613 4.784C109.613 6.272 109.005 7.44 107.789 8.288ZM104.909 2.288H100.421V7.424H104.909C105.613 7.424 106.205 7.176 106.685 6.68C107.165 6.184 107.405 5.576 107.405 4.856C107.405 4.152 107.157 3.552 106.661 3.056C106.181 2.544 105.597 2.288 104.909 2.288ZM105.437 14.912C106.189 14.912 106.821 14.648 107.333 14.12C107.845 13.592 108.101 12.944 108.101 12.176C108.101 11.424 107.837 10.784 107.309 10.256C106.797 9.728 106.173 9.464 105.437 9.464H100.421V14.912H105.437ZM121.963 5H124.195L119.299 17.744C118.787 19.104 118.067 20.136 117.139 20.84C116.227 21.56 115.171 21.88 113.971 21.8V19.856C115.443 19.968 116.523 19.152 117.211 17.408L117.427 16.952L112.195 5H114.427L118.507 14.408L121.963 5ZM145.307 0.199999V2.312H140.339V17H138.131V2.312H133.187V0.199999H145.307ZM156.448 15.488C155.216 16.704 153.72 17.312 151.96 17.312C150.2 17.312 148.704 16.704 147.472 15.488C146.256 14.272 145.648 12.776 145.648 11C145.648 9.224 146.256 7.728 147.472 6.512C148.704 5.296 150.2 4.688 151.96 4.688C153.72 4.688 155.216 5.296 156.448 6.512C157.68 7.728 158.296 9.224 158.296 11C158.296 12.776 157.68 14.272 156.448 15.488ZM151.96 15.272C153.16 15.272 154.168 14.864 154.984 14.048C155.8 13.232 156.208 12.216 156.208 11C156.208 9.784 155.8 8.768 154.984 7.952C154.168 7.136 153.16 6.728 151.96 6.728C150.776 6.728 149.776 7.136 148.96 7.952C148.144 8.768 147.736 9.784 147.736 11C147.736 12.216 148.144 13.232 148.96 14.048C149.776 14.864 150.776 15.272 151.96 15.272ZM168.581 4.688C170.261 4.688 171.693 5.304 172.877 6.536C174.061 7.752 174.653 9.24 174.653 11C174.653 12.76 174.061 14.256 172.877 15.488C171.693 16.704 170.261 17.312 168.581 17.312C166.597 17.312 165.085 16.52 164.045 14.936V21.8H161.957V5H164.045V7.064C165.085 5.48 166.597 4.688 168.581 4.688ZM168.317 15.296C169.517 15.296 170.525 14.888 171.341 14.072C172.157 13.24 172.565 12.216 172.565 11C172.565 9.784 172.157 8.768 171.341 7.952C170.525 7.12 169.517 6.704 168.317 6.704C167.101 6.704 166.085 7.12 165.269 7.952C164.453 8.768 164.045 9.784 164.045 11C164.045 12.216 164.453 13.24 165.269 14.072C166.085 14.888 167.101 15.296 168.317 15.296ZM9.696 45.312C7.152 45.312 5.048 44.472 3.384 42.792C1.736 41.112 0.912 39.048 0.912 36.6C0.912 34.152 1.736 32.088 3.384 30.408C5.048 28.728 7.152 27.888 9.696 27.888C11.232 27.888 12.64 28.256 13.92 28.992C15.216 29.728 16.224 30.72 16.944 31.968L15 33.096C14.52 32.168 13.8 31.432 12.84 30.888C11.896 30.328 10.848 30.048 9.696 30.048C7.76 30.048 6.176 30.672 4.944 31.92C3.728 33.168 3.12 34.728 3.12 36.6C3.12 38.456 3.728 40.008 4.944 41.256C6.176 42.504 7.76 43.128 9.696 43.128C10.848 43.128 11.896 42.856 12.84 42.312C13.8 41.752 14.52 41.016 15 40.104L16.944 41.208C16.24 42.456 15.24 43.456 13.944 44.208C12.648 44.944 11.232 45.312 9.696 45.312ZM30.537 43.488C29.305 44.704 27.809 45.312 26.049 45.312C24.289 45.312 22.793 44.704 21.561 43.488C20.345 42.272 19.737 40.776 19.737 39C19.737 37.224 20.345 35.728 21.561 34.512C22.793 33.296 24.289 32.688 26.049 32.688C27.809 32.688 29.305 33.296 30.537 34.512C31.769 35.728 32.385 37.224 32.385 39C32.385 40.776 31.769 42.272 30.537 43.488ZM26.049 43.272C27.249 43.272 28.257 42.864 29.073 42.048C29.889 41.232 30.297 40.216 30.297 39C30.297 37.784 29.889 36.768 29.073 35.952C28.257 35.136 27.249 34.728 26.049 34.728C24.865 34.728 23.865 35.136 23.049 35.952C22.233 36.768 21.825 37.784 21.825 39C21.825 40.216 22.233 41.232 23.049 42.048C23.865 42.864 24.865 43.272 26.049 43.272ZM49.0065 32.688C50.3505 32.688 51.4385 33.128 52.2705 34.008C53.1025 34.872 53.5185 36.048 53.5185 37.536V45H51.4305V37.608C51.4305 36.68 51.1905 35.96 50.7105 35.448C50.2305 34.936 49.5905 34.68 48.7905 34.68C47.8945 34.68 47.1745 34.984 46.6305 35.592C46.1025 36.184 45.8385 37.096 45.8385 38.328V45H43.7505V37.608C43.7505 36.68 43.5185 35.96 43.0545 35.448C42.6065 34.936 41.9905 34.68 41.2065 34.68C40.3265 34.68 39.5905 34.984 38.9985 35.592C38.4225 36.2 38.1345 37.112 38.1345 38.328V45H36.0465V33H38.1345V34.608C38.9505 33.328 40.1425 32.688 41.7105 32.688C43.3265 32.688 44.5025 33.368 45.2385 34.728C46.0705 33.368 47.3265 32.688 49.0065 32.688ZM64.2377 32.688C65.9177 32.688 67.3497 33.304 68.5337 34.536C69.7177 35.752 70.3097 37.24 70.3097 39C70.3097 40.76 69.7177 42.256 68.5337 43.488C67.3497 44.704 65.9177 45.312 64.2377 45.312C62.2537 45.312 60.7417 44.52 59.7017 42.936V49.8H57.6137V33H59.7017V35.064C60.7417 33.48 62.2537 32.688 64.2377 32.688ZM63.9737 43.296C65.1737 43.296 66.1817 42.888 66.9977 42.072C67.8137 41.24 68.2217 40.216 68.2217 39C68.2217 37.784 67.8137 36.768 66.9977 35.952C66.1817 35.12 65.1737 34.704 63.9737 34.704C62.7577 34.704 61.7417 35.12 60.9257 35.952C60.1097 36.768 59.7017 37.784 59.7017 39C59.7017 40.216 60.1097 41.24 60.9257 42.072C61.7417 42.888 62.7577 43.296 63.9737 43.296ZM83.9372 33H86.0252V45H83.9372V42.936C82.8972 44.52 81.3852 45.312 79.4012 45.312C77.7212 45.312 76.2892 44.704 75.1052 43.488C73.9212 42.256 73.3292 40.76 73.3292 39C73.3292 37.24 73.9212 35.752 75.1052 34.536C76.2892 33.304 77.7212 32.688 79.4012 32.688C81.3852 32.688 82.8972 33.48 83.9372 35.064V33ZM79.6652 43.296C80.8812 43.296 81.8972 42.888 82.7132 42.072C83.5292 41.24 83.9372 40.216 83.9372 39C83.9372 37.784 83.5292 36.768 82.7132 35.952C81.8972 35.12 80.8812 34.704 79.6652 34.704C78.4652 34.704 77.4572 35.12 76.6412 35.952C75.8252 36.768 75.4172 37.784 75.4172 39C75.4172 40.216 75.8252 41.24 76.6412 42.072C77.4572 42.888 78.4652 43.296 79.6652 43.296ZM96.3647 32.688C97.7727 32.688 98.9007 33.136 99.7487 34.032C100.597 34.912 101.021 36.112 101.021 37.632V45H98.9327V37.752C98.9327 36.776 98.6687 36.024 98.1407 35.496C97.6127 34.952 96.8847 34.68 95.9567 34.68C94.9167 34.68 94.0767 35.008 93.4367 35.664C92.7967 36.304 92.4767 37.296 92.4767 38.64V45H90.3887V33H92.4767V34.728C93.3247 33.368 94.6207 32.688 96.3647 32.688ZM106.192 30.816C105.792 30.816 105.456 30.68 105.184 30.408C104.912 30.136 104.776 29.808 104.776 29.424C104.776 29.04 104.912 28.712 105.184 28.44C105.456 28.152 105.792 28.008 106.192 28.008C106.576 28.008 106.904 28.152 107.176 28.44C107.448 28.712 107.584 29.04 107.584 29.424C107.584 29.808 107.448 30.136 107.176 30.408C106.904 30.68 106.576 30.816 106.192 30.816ZM105.136 45V33H107.224V45H105.136ZM113.073 39.96C113.281 41.032 113.769 41.864 114.537 42.456C115.321 43.048 116.281 43.344 117.417 43.344C119.001 43.344 120.153 42.76 120.873 41.592L122.649 42.6C121.481 44.408 119.721 45.312 117.369 45.312C115.465 45.312 113.913 44.72 112.713 43.536C111.529 42.336 110.937 40.824 110.937 39C110.937 37.192 111.521 35.688 112.689 34.488C113.857 33.288 115.369 32.688 117.225 32.688C118.985 32.688 120.417 33.312 121.521 34.56C122.641 35.792 123.201 37.28 123.201 39.024C123.201 39.328 123.177 39.64 123.129 39.96H113.073ZM117.225 34.656C116.105 34.656 115.177 34.976 114.441 35.616C113.705 36.24 113.249 37.08 113.073 38.136H121.089C120.913 37 120.465 36.136 119.745 35.544C119.025 34.952 118.185 34.656 117.225 34.656ZM128.132 36.24C128.132 36.704 128.364 37.08 128.828 37.368C129.292 37.64 129.852 37.864 130.508 38.04C131.164 38.2 131.82 38.392 132.476 38.616C133.132 38.824 133.692 39.192 134.156 39.72C134.62 40.232 134.852 40.896 134.852 41.712C134.852 42.8 134.428 43.672 133.58 44.328C132.748 44.984 131.676 45.312 130.364 45.312C129.196 45.312 128.196 45.056 127.364 44.544C126.532 44.032 125.94 43.352 125.588 42.504L127.388 41.472C127.58 42.048 127.94 42.504 128.468 42.84C128.996 43.176 129.628 43.344 130.364 43.344C131.052 43.344 131.62 43.216 132.068 42.96C132.516 42.688 132.74 42.272 132.74 41.712C132.74 41.248 132.508 40.88 132.044 40.608C131.58 40.32 131.02 40.096 130.364 39.936C129.708 39.76 129.052 39.56 128.396 39.336C127.74 39.112 127.18 38.744 126.716 38.232C126.252 37.72 126.02 37.064 126.02 36.264C126.02 35.224 126.42 34.368 127.22 33.696C128.036 33.024 129.052 32.688 130.268 32.688C131.244 32.688 132.108 32.912 132.86 33.36C133.628 33.792 134.204 34.4 134.588 35.184L132.836 36.168C132.404 35.144 131.548 34.632 130.268 34.632C129.676 34.632 129.172 34.776 128.756 35.064C128.34 35.336 128.132 35.728 128.132 36.24Z" fill="#666666"/>
</svg>
